<mxfile host="app.diagrams.net" modified="2023-05-30T21:46:59.367Z" agent="Mozilla/5.0 (X11; Linux x86_64) AppleWebKit/537.36 (KHTML, like Gecko) Chrome/108.0.0.0 Safari/537.36" etag="BOpuWwWXTHoRQXTZnUvF" version="21.3.6" type="github">
  <diagram name="PÃ¡gina-1" id="ArErtXcB3RT7bQcStVE0">
    <mxGraphModel dx="1434" dy="802" grid="1" gridSize="10" guides="1" tooltips="1" connect="1" arrows="1" fold="1" page="1" pageScale="1" pageWidth="827" pageHeight="1169" math="0" shadow="0">
      <root>
        <mxCell id="0" />
        <mxCell id="1" parent="0" />
        <mxCell id="kXzBmzh8QShLzs31Dxxc-3" value="" style="rounded=0;whiteSpace=wrap;html=1;" vertex="1" parent="1">
          <mxGeometry x="170" y="50" width="510" height="780" as="geometry" />
        </mxCell>
        <mxCell id="kXzBmzh8QShLzs31Dxxc-44" style="edgeStyle=orthogonalEdgeStyle;rounded=0;orthogonalLoop=1;jettySize=auto;html=1;exitX=0.5;exitY=0;exitDx=0;exitDy=0;exitPerimeter=0;" edge="1" parent="1" source="kXzBmzh8QShLzs31Dxxc-1" target="kXzBmzh8QShLzs31Dxxc-14">
          <mxGeometry relative="1" as="geometry">
            <Array as="points">
              <mxPoint x="760" y="300" />
              <mxPoint x="760" y="180" />
            </Array>
          </mxGeometry>
        </mxCell>
        <mxCell id="kXzBmzh8QShLzs31Dxxc-45" style="edgeStyle=orthogonalEdgeStyle;rounded=0;orthogonalLoop=1;jettySize=auto;html=1;entryX=1;entryY=0;entryDx=0;entryDy=0;" edge="1" parent="1" source="kXzBmzh8QShLzs31Dxxc-1" target="kXzBmzh8QShLzs31Dxxc-15">
          <mxGeometry relative="1" as="geometry">
            <Array as="points">
              <mxPoint x="760" y="230" />
              <mxPoint x="427" y="230" />
            </Array>
          </mxGeometry>
        </mxCell>
        <mxCell id="kXzBmzh8QShLzs31Dxxc-47" style="edgeStyle=orthogonalEdgeStyle;rounded=0;orthogonalLoop=1;jettySize=auto;html=1;" edge="1" parent="1" source="kXzBmzh8QShLzs31Dxxc-1" target="kXzBmzh8QShLzs31Dxxc-18">
          <mxGeometry relative="1" as="geometry">
            <Array as="points">
              <mxPoint x="630" y="330" />
              <mxPoint x="630" y="360" />
            </Array>
          </mxGeometry>
        </mxCell>
        <mxCell id="kXzBmzh8QShLzs31Dxxc-48" style="edgeStyle=orthogonalEdgeStyle;rounded=0;orthogonalLoop=1;jettySize=auto;html=1;entryX=1;entryY=0.5;entryDx=0;entryDy=0;" edge="1" parent="1" source="kXzBmzh8QShLzs31Dxxc-1" target="kXzBmzh8QShLzs31Dxxc-19">
          <mxGeometry relative="1" as="geometry">
            <Array as="points">
              <mxPoint x="630" y="330" />
              <mxPoint x="630" y="430" />
            </Array>
          </mxGeometry>
        </mxCell>
        <mxCell id="kXzBmzh8QShLzs31Dxxc-49" style="edgeStyle=orthogonalEdgeStyle;rounded=0;orthogonalLoop=1;jettySize=auto;html=1;" edge="1" parent="1" source="kXzBmzh8QShLzs31Dxxc-1" target="kXzBmzh8QShLzs31Dxxc-22">
          <mxGeometry relative="1" as="geometry">
            <Array as="points">
              <mxPoint x="630" y="330" />
              <mxPoint x="630" y="520" />
            </Array>
          </mxGeometry>
        </mxCell>
        <mxCell id="kXzBmzh8QShLzs31Dxxc-50" style="edgeStyle=orthogonalEdgeStyle;rounded=0;orthogonalLoop=1;jettySize=auto;html=1;entryX=1;entryY=0.5;entryDx=0;entryDy=0;" edge="1" parent="1" source="kXzBmzh8QShLzs31Dxxc-1" target="kXzBmzh8QShLzs31Dxxc-31">
          <mxGeometry relative="1" as="geometry">
            <Array as="points">
              <mxPoint x="630" y="330" />
              <mxPoint x="630" y="593" />
            </Array>
          </mxGeometry>
        </mxCell>
        <mxCell id="kXzBmzh8QShLzs31Dxxc-51" style="edgeStyle=orthogonalEdgeStyle;rounded=0;orthogonalLoop=1;jettySize=auto;html=1;entryX=1;entryY=0.5;entryDx=0;entryDy=0;" edge="1" parent="1" source="kXzBmzh8QShLzs31Dxxc-1" target="kXzBmzh8QShLzs31Dxxc-21">
          <mxGeometry relative="1" as="geometry">
            <Array as="points">
              <mxPoint x="630" y="330" />
              <mxPoint x="630" y="678" />
            </Array>
          </mxGeometry>
        </mxCell>
        <mxCell id="kXzBmzh8QShLzs31Dxxc-1" value="USER&lt;br&gt;CLIENTE" style="shape=umlActor;verticalLabelPosition=bottom;verticalAlign=top;html=1;outlineConnect=0;" vertex="1" parent="1">
          <mxGeometry x="750" y="300" width="30" height="60" as="geometry" />
        </mxCell>
        <mxCell id="kXzBmzh8QShLzs31Dxxc-10" value="" style="edgeStyle=orthogonalEdgeStyle;rounded=0;orthogonalLoop=1;jettySize=auto;html=1;entryX=0;entryY=0.5;entryDx=0;entryDy=0;exitX=0.5;exitY=0;exitDx=0;exitDy=0;exitPerimeter=0;" edge="1" parent="1" source="kXzBmzh8QShLzs31Dxxc-4" target="kXzBmzh8QShLzs31Dxxc-5">
          <mxGeometry relative="1" as="geometry">
            <mxPoint x="120" y="270" as="sourcePoint" />
            <Array as="points">
              <mxPoint x="125" y="100" />
            </Array>
          </mxGeometry>
        </mxCell>
        <mxCell id="kXzBmzh8QShLzs31Dxxc-26" style="edgeStyle=orthogonalEdgeStyle;rounded=0;orthogonalLoop=1;jettySize=auto;html=1;exitX=0.5;exitY=0;exitDx=0;exitDy=0;exitPerimeter=0;" edge="1" parent="1" source="kXzBmzh8QShLzs31Dxxc-4" target="kXzBmzh8QShLzs31Dxxc-14">
          <mxGeometry relative="1" as="geometry">
            <mxPoint x="210" y="240" as="sourcePoint" />
            <Array as="points">
              <mxPoint x="125" y="190" />
            </Array>
          </mxGeometry>
        </mxCell>
        <mxCell id="kXzBmzh8QShLzs31Dxxc-27" style="edgeStyle=orthogonalEdgeStyle;rounded=0;orthogonalLoop=1;jettySize=auto;html=1;entryX=0;entryY=0.5;entryDx=0;entryDy=0;" edge="1" parent="1" source="kXzBmzh8QShLzs31Dxxc-4" target="kXzBmzh8QShLzs31Dxxc-15">
          <mxGeometry relative="1" as="geometry">
            <mxPoint x="210" y="270" as="sourcePoint" />
            <Array as="points">
              <mxPoint x="250" y="340" />
              <mxPoint x="250" y="258" />
            </Array>
          </mxGeometry>
        </mxCell>
        <mxCell id="kXzBmzh8QShLzs31Dxxc-32" style="edgeStyle=orthogonalEdgeStyle;rounded=0;orthogonalLoop=1;jettySize=auto;html=1;entryX=0;entryY=0.5;entryDx=0;entryDy=0;" edge="1" parent="1" source="kXzBmzh8QShLzs31Dxxc-4" target="kXzBmzh8QShLzs31Dxxc-31">
          <mxGeometry relative="1" as="geometry">
            <mxPoint x="210" y="270" as="sourcePoint" />
            <mxPoint x="330" y="600" as="targetPoint" />
            <Array as="points">
              <mxPoint x="130" y="590" />
              <mxPoint x="260" y="590" />
              <mxPoint x="260" y="593" />
            </Array>
          </mxGeometry>
        </mxCell>
        <mxCell id="kXzBmzh8QShLzs31Dxxc-33" style="edgeStyle=orthogonalEdgeStyle;rounded=0;orthogonalLoop=1;jettySize=auto;html=1;entryX=0;entryY=0.5;entryDx=0;entryDy=0;" edge="1" parent="1" source="kXzBmzh8QShLzs31Dxxc-4" target="kXzBmzh8QShLzs31Dxxc-21">
          <mxGeometry relative="1" as="geometry">
            <Array as="points">
              <mxPoint x="60" y="310" />
              <mxPoint x="60" y="678" />
            </Array>
          </mxGeometry>
        </mxCell>
        <mxCell id="kXzBmzh8QShLzs31Dxxc-41" style="edgeStyle=orthogonalEdgeStyle;rounded=0;orthogonalLoop=1;jettySize=auto;html=1;" edge="1" parent="1" source="kXzBmzh8QShLzs31Dxxc-4" target="kXzBmzh8QShLzs31Dxxc-18">
          <mxGeometry relative="1" as="geometry">
            <Array as="points">
              <mxPoint x="190" y="340" />
              <mxPoint x="190" y="340" />
            </Array>
          </mxGeometry>
        </mxCell>
        <mxCell id="kXzBmzh8QShLzs31Dxxc-42" style="edgeStyle=orthogonalEdgeStyle;rounded=0;orthogonalLoop=1;jettySize=auto;html=1;" edge="1" parent="1" source="kXzBmzh8QShLzs31Dxxc-4" target="kXzBmzh8QShLzs31Dxxc-19">
          <mxGeometry relative="1" as="geometry">
            <Array as="points">
              <mxPoint x="130" y="430" />
            </Array>
          </mxGeometry>
        </mxCell>
        <mxCell id="kXzBmzh8QShLzs31Dxxc-43" style="edgeStyle=orthogonalEdgeStyle;rounded=0;orthogonalLoop=1;jettySize=auto;html=1;entryX=0;entryY=0.5;entryDx=0;entryDy=0;" edge="1" parent="1" source="kXzBmzh8QShLzs31Dxxc-4" target="kXzBmzh8QShLzs31Dxxc-22">
          <mxGeometry relative="1" as="geometry">
            <mxPoint x="110" y="310" as="sourcePoint" />
            <Array as="points">
              <mxPoint x="60" y="310" />
              <mxPoint x="60" y="520" />
            </Array>
          </mxGeometry>
        </mxCell>
        <mxCell id="kXzBmzh8QShLzs31Dxxc-4" value="ADMIN" style="shape=umlActor;verticalLabelPosition=bottom;verticalAlign=top;html=1;outlineConnect=0;" vertex="1" parent="1">
          <mxGeometry x="110" y="280" width="30" height="60" as="geometry" />
        </mxCell>
        <mxCell id="kXzBmzh8QShLzs31Dxxc-5" value="UC001 - MANTER CONTAS" style="ellipse;whiteSpace=wrap;html=1;" vertex="1" parent="1">
          <mxGeometry x="350" y="70" width="90" height="60" as="geometry" />
        </mxCell>
        <mxCell id="kXzBmzh8QShLzs31Dxxc-14" value="UC002 - RECUPERAR SENHA" style="ellipse;whiteSpace=wrap;html=1;" vertex="1" parent="1">
          <mxGeometry x="350" y="160" width="90" height="60" as="geometry" />
        </mxCell>
        <mxCell id="kXzBmzh8QShLzs31Dxxc-15" value="UC003&amp;nbsp;- COLETA DE DADOS" style="ellipse;whiteSpace=wrap;html=1;" vertex="1" parent="1">
          <mxGeometry x="350" y="227.5" width="90" height="60" as="geometry" />
        </mxCell>
        <mxCell id="kXzBmzh8QShLzs31Dxxc-16" value="UC004&amp;nbsp;- INCLUIR FILTROS" style="ellipse;whiteSpace=wrap;html=1;" vertex="1" parent="1">
          <mxGeometry x="510" y="280" width="90" height="60" as="geometry" />
        </mxCell>
        <mxCell id="kXzBmzh8QShLzs31Dxxc-17" value="INCLUDE" style="endArrow=none;dashed=1;html=1;dashPattern=1 3;strokeWidth=2;rounded=0;exitX=1;exitY=0.5;exitDx=0;exitDy=0;" edge="1" parent="1" source="kXzBmzh8QShLzs31Dxxc-15" target="kXzBmzh8QShLzs31Dxxc-16">
          <mxGeometry width="50" height="50" relative="1" as="geometry">
            <mxPoint x="450" y="380" as="sourcePoint" />
            <mxPoint x="478" y="217" as="targetPoint" />
          </mxGeometry>
        </mxCell>
        <mxCell id="kXzBmzh8QShLzs31Dxxc-18" value="UC005 - SEGMENTAR ALVOS" style="ellipse;whiteSpace=wrap;html=1;" vertex="1" parent="1">
          <mxGeometry x="350" y="310" width="90" height="60" as="geometry" />
        </mxCell>
        <mxCell id="kXzBmzh8QShLzs31Dxxc-19" value="UC006 - IMPORTAR DADOS" style="ellipse;whiteSpace=wrap;html=1;" vertex="1" parent="1">
          <mxGeometry x="350" y="400" width="90" height="60" as="geometry" />
        </mxCell>
        <mxCell id="kXzBmzh8QShLzs31Dxxc-20" value="UC008 - GERAR RELATÃRIOS" style="ellipse;whiteSpace=wrap;html=1;" vertex="1" parent="1">
          <mxGeometry x="480" y="750" width="100" height="70" as="geometry" />
        </mxCell>
        <mxCell id="kXzBmzh8QShLzs31Dxxc-21" value="&lt;font style=&quot;font-size: 10px;&quot;&gt;UC011 - CONFIG OPÃÃES DE RELATÃRIOS&lt;/font&gt;" style="ellipse;whiteSpace=wrap;html=1;" vertex="1" parent="1">
          <mxGeometry x="350" y="645" width="109" height="65" as="geometry" />
        </mxCell>
        <mxCell id="kXzBmzh8QShLzs31Dxxc-22" value="UC007 - EXPORTAR DADOS" style="ellipse;whiteSpace=wrap;html=1;" vertex="1" parent="1">
          <mxGeometry x="350" y="490" width="90" height="60" as="geometry" />
        </mxCell>
        <mxCell id="kXzBmzh8QShLzs31Dxxc-23" value="&lt;font style=&quot;font-size: 10px;&quot;&gt;UC009 - Feedback sobre GeraÃ§Ã£o de RelatÃ³rios&lt;/font&gt;" style="ellipse;whiteSpace=wrap;html=1;" vertex="1" parent="1">
          <mxGeometry x="240" y="750" width="109" height="65" as="geometry" />
        </mxCell>
        <mxCell id="kXzBmzh8QShLzs31Dxxc-24" value="INCLUDE" style="endArrow=none;dashed=1;html=1;dashPattern=1 3;strokeWidth=2;rounded=0;entryX=0.5;entryY=1;entryDx=0;entryDy=0;fontSize=9;" edge="1" parent="1" source="kXzBmzh8QShLzs31Dxxc-23" target="kXzBmzh8QShLzs31Dxxc-21">
          <mxGeometry width="50" height="50" relative="1" as="geometry">
            <mxPoint x="336.7197675012078" y="704.076255850749" as="sourcePoint" />
            <mxPoint x="258" y="675" as="targetPoint" />
          </mxGeometry>
        </mxCell>
        <mxCell id="kXzBmzh8QShLzs31Dxxc-25" value="INCLUDE" style="endArrow=none;dashed=1;html=1;dashPattern=1 3;strokeWidth=2;rounded=0;fontSize=9;" edge="1" parent="1" source="kXzBmzh8QShLzs31Dxxc-20" target="kXzBmzh8QShLzs31Dxxc-21">
          <mxGeometry width="50" height="50" relative="1" as="geometry">
            <mxPoint x="360" y="725" as="sourcePoint" />
            <mxPoint x="320" y="675" as="targetPoint" />
          </mxGeometry>
        </mxCell>
        <mxCell id="kXzBmzh8QShLzs31Dxxc-31" value="&lt;font style=&quot;font-size: 10px;&quot;&gt;UC011 - CONFIG OPÃÃES DE RELATÃRIOS&lt;/font&gt;" style="ellipse;whiteSpace=wrap;html=1;" vertex="1" parent="1">
          <mxGeometry x="331" y="560" width="109" height="65" as="geometry" />
        </mxCell>
      </root>
    </mxGraphModel>
  </diagram>
</mxfile>
